<svg width="1200" height="630" xmlns="http://www.w3.org/2000/svg">
  <defs>
    <linearGradient id="bg" x1="0%" y1="0%" x2="100%" y2="100%">
      <stop offset="0%" style="stop-color:#0f0f23"/>
      <stop offset="100%" style="stop-color:#1a1a3e"/>
    </linearGradient>
    <linearGradient id="line" x1="0%" y1="100%" x2="80%" y2="0%">
      <stop offset="0%" style="stop-color:#22c55e"/>
      <stop offset="70%" style="stop-color:#22c55e"/>
      <stop offset="100%" style="stop-color:#ef4444"/>
    </linearGradient>
  </defs>
  <rect width="1200" height="630" fill="url(#bg)"/>
  <!-- Grid lines -->
  <line x1="100" y1="530" x2="1100" y2="530" stroke="#333" stroke-width="1"/>
  <line x1="100" y1="430" x2="1100" y2="430" stroke="#222" stroke-width="1" stroke-dasharray="5,5"/>
  <line x1="100" y1="330" x2="1100" y2="330" stroke="#222" stroke-width="1" stroke-dasharray="5,5"/>
  <line x1="100" y1="230" x2="1100" y2="230" stroke="#222" stroke-width="1" stroke-dasharray="5,5"/>
  <line x1="100" y1="130" x2="1100" y2="130" stroke="#222" stroke-width="1" stroke-dasharray="5,5"/>
  <!-- Crash line -->
  <polyline points="100,530 300,430 500,330 650,250 750,180 820,130 880,100 920,80 950,70 970,65 990,90" 
    fill="none" stroke="url(#line)" stroke-width="4" stroke-linecap="round"/>
  <!-- Explosion -->
  <text x="990" y="90" font-size="40" text-anchor="middle">💥</text>
  <!-- Title -->
  <text x="600" y="80" font-family="monospace" font-size="48" font-weight="bold" fill="white" text-anchor="middle">CLAWD CRASH</text>
  <!-- Multiplier -->
  <text x="850" y="200" font-family="monospace" font-size="72" font-weight="bold" fill="#ef4444" text-anchor="middle">9.70x</text>
  <text x="850" y="240" font-family="monospace" font-size="24" fill="#888" text-anchor="middle">CRASHED!</text>
  <!-- Subtitle -->
  <text x="600" y="600" font-family="monospace" font-size="20" fill="#666" text-anchor="middle">Bet $CLAWD • Cash out before it crashes • Lost bets get burned 🔥</text>
</svg>
